<?xml version="1.0" encoding="UTF-8"?>
<svg width="11.693in" height="8.2677in" version="1.1" viewBox="0 0 1052.3622 744.09448" xmlns="http://www.w3.org/2000/svg">
 <g transform="translate(0 -308.27)">
  <path d="m245.4 689.84c2.2937-13.164 7.599-23.562 15.718-31.145 8.175-7.6357 19.72-12.895 34.896-14.885 15.986-1.8319 27.548 1.6736 37.239 7.8164 9.9324 6.2961 17.835 15.281 26.489 24.942 8.4735 9.4595 17.438 19.272 29.036 25.821 11.703 6.608 25.794 9.7483 44.47 6.637 27.122-4.4104 46.337-16.508 61.657-31.432 15.218-14.824 26.826-32.698 38.517-48.541 11.762-15.938 23.841-30.19 40.294-38.367 16.469-8.1847 37.484-10.359 67.096-1.7207-29.426-9.0726-50.674-7.4826-67.706 0.45294-17.047 7.9423-29.706 22.167-41.928 37.937-12.296 15.865-23.913 32.935-39.189 47.164-15.17 14.131-33.702 25.197-59.597 28.944-17.548 2.4633-30.075-0.98471-40.104-7.1681-10.126-6.243-18.002-15.438-26.155-25.244-7.9862-9.6051-16.497-20.154-27.502-27.705-11.237-7.7104-25.103-12.362-43.736-10.737-17.01 1.2299-31.523 6.2708-42.931 15.457-11.459 9.2276-19.214 22.185-23.085 38.297z" fill-rule="evenodd"/>
  <path d="m487.99 681.37c1.201-0.30548 2.3995-0.58294 3.5943-0.83302 12.715-12.295 28.928-20.969 46.242-24.682 11.402-2.4587 23.316-2.7751 34.564-0.0313s21.804 8.6547 29.317 17.366c7.5129 8.7115 11.81 20.305 10.937 31.711-0.41905 5.7073-2.1082 11.331-5.0012 16.264-2.893 4.9327-6.9989 9.1675-11.899 12.113-4.6249 2.782-9.9698 4.4028-15.345 4.4124-5.3754 0.01-10.777-1.6277-15.091-4.8092-4.1094-3.028-7.1933-7.4172-8.9162-12.289-1.7227-4.8709-2.1111-10.2-1.3743-15.368 1.5099-10.333 7.3818-19.678 14.722-27.318 7.6963-8.0081 17.232-14.473 27.948-17.2 10.715-2.7263 22.673-1.4171 31.793 4.7813 4.5714 3.0852 8.3772 7.3483 10.756 12.332s3.3038 10.69 2.4276 16.156c-0.87613 5.465-3.5816 10.663-7.7011 14.387-4.1189 3.7236-9.6505 5.9193-15.227 5.8398-6.9037-0.10708-13.677-3.8132-17.497-9.6108 3.7578 5.8351 10.516 9.6468 17.492 9.8277 5.6327 0.15304 11.274-1.9924 15.52-5.7329 4.2459-3.74 7.0833-9.0107 8.0541-14.604 0.97076-5.5926 0.1003-11.466-2.284-16.632-2.3841-5.1653-6.2487-9.6114-10.929-12.859-9.3834-6.4665-21.69-7.8802-32.723-5.1487-11.033 2.7313-20.829 9.2984-28.722 17.406-7.5146 7.7163-13.695 17.32-15.347 28.117-0.84427 5.3972-0.5233 11.038 1.2454 16.263 1.7685 5.2246 5.0164 10.018 9.4622 13.388 4.6732 3.54 10.531 5.3931 16.379 5.4581 5.8475 0.0651 11.653-1.6205 16.684-4.559 5.3282-3.1146 9.8095-7.6259 12.996-12.91 3.1864-5.2843 5.0787-11.321 5.6051-17.465 1.0173-12.296-3.5338-24.726-11.493-34.07-7.9599-9.3443-19.12-15.654-30.955-18.618-11.835-2.9634-24.306-2.6882-36.163-0.2066-18.005 3.7895-34.891 12.736-48.176 25.485-0.32577 1.2146-0.62363 2.4272-0.89372 3.6367z"/>
  <path d="m562.32 597.41c5.708-3.4148 10.365-8.5474 13.208-14.551 1.7722-3.7538 2.8571-7.8897 2.8102-12.072-0.0468-4.1824-1.2645-8.4066-3.7498-11.805-2.4852-3.3981-6.2716-5.9042-10.457-6.5414-2.0926-0.31187-4.2576-0.15929-6.2744 0.4849-2.0169 0.6442-3.8784 1.7819-5.3411 3.3131-1.3799 1.4456-2.4035 3.2491-2.8464 5.2061-0.44292 1.957-0.29002 4.0596 0.52032 5.9011 0.7717 1.7521 2.1135 3.2166 3.7159 4.2213 1.6026 1.0049 3.4582 1.5594 5.3243 1.7061 3.7301 0.3066 7.4203-0.9909 10.586-2.881 3.326-1.9853 6.2905-4.7267 8.0758-8.1848 1.7854-3.4583 2.2913-7.6699 0.88179-11.309-0.71077-1.8168-1.8856-3.4569-3.4173-4.6607-1.5318-1.2039-3.4193-1.9595-5.3591-2.0795-1.94-0.12003-3.9202 0.40721-5.5022 1.5247-1.5822 1.1177-2.7434 2.8259-3.1388 4.7131-0.49274 2.3368 0.2406 4.8882 1.8846 6.6009-1.6253-1.7317-2.3196-4.2795-1.8066-6.584 0.41683-1.8608 1.5867-3.5255 3.152-4.599 1.5655-1.0736 3.5085-1.5598 5.3945-1.4168 1.8862 0.14301 3.7093 0.90387 5.1765 2.0903 1.4673 1.1865 2.5816 2.7898 3.2436 4.5538 1.3361 3.5222 0.82247 7.6003-0.93395 10.945-1.7565 3.3452-4.6623 6.002-7.9358 7.9252-3.1233 1.8342-6.6944 3.0435-10.246 2.7255-1.7749-0.1656-3.5132-0.7177-4.9929-1.6758-1.4799-0.95831-2.691-2.3296-3.3691-3.932-0.71263-1.6825-0.82727-3.6032-0.39794-5.3848s1.3905-3.4259 2.6798-4.7395c1.3656-1.3926 3.0962-2.4195 4.9622-2.9886 1.866-0.56917 3.8661-0.68417 5.7932-0.37109 3.8542 0.61267 7.3628 2.9567 9.6597 6.1409 2.2967 3.1839 3.423 7.158 3.4414 11.111 0.0184 3.9533-1.0335 7.8862-2.7583 11.478-2.7522 5.7504-7.2408 10.654-12.718 13.9z"/>
  <path d="m223.55 684.83c6.1416-29.668 31.689-55.323 62.417-58.095 31.08-4.4702 62.27 7.4624 86.987 25.775 12.352 8.4905 24.097 19.08 40.019 17.013 14.982-2.5351 26.616-18.656 22.112-33.975-3.8659-13.147-15.94-21.867-30.567-18.836-13.469 4.7656-11.284 18.132-11.278 18.085 3.232 12.98 18.339 11.026 21.387-0.24555 3.9354 23.062-30.748 16.666-28.537-5.072 2.3502-18.4 16.218-24.357 33.442-22.103 27.548 3.9424 35.489 40.968 20.805 58.66-11.216 14.336-35.524 13.158-52.37 3.4015-21.651-12.599-41.494-32.04-66.791-36.904-26.184-6.2602-56.959-2.3142-76.428 17.71-9.5393 9.7808-15.969 22.09-21.199 34.585z" fill-rule="evenodd"/>
  <path d="m371.66 684.02-2.2432 2.08c17.405 18.395 34.038 27.582 49.731 31.42 15.648 3.8267 30.144 2.2786 43.302-0.52208 13.29-2.8286 24.995-6.8558 35.81-8.3681 10.64-1.4878 20.259-0.48449 28.725 7.0879-8.1712-7.9952-17.845-9.6301-28.901-8.6073-10.89 1.0074-23.259 4.6395-36.214 6.8838-13.078 2.2658-26.951 3.1809-41.559-0.89732-14.559-4.0648-30.061-13.153-46.408-31.157l-2.2432 2.08z" fill-rule="evenodd"/>
  <path d="m508.46 666.79c39-28.472 74.429-29.193 105.55-25.72 15.446 1.7236 30.014 4.5167 42.901 5.2556 13.021 0.74653 24.513-0.57346 34.289-6.9278-9.9841 5.8911-21.411 6.648-34.159 5.4188-12.896-1.2434-26.92-4.4751-42.648-6.7423-31.206-4.4985-68.254-4.9973-109.44 23.801z" fill-rule="evenodd"/>
  <path d="m282.89 652.19c19.521-7.9526 44.245-3.1378 57.758 13.54 14.631 16.223 19.827 38.867 18.829 60.246-0.117 10.427-1.6822 21.318 5.6848 29.715 7.2724 7.6729 21.096 8.1451 28.2-0.39561 6.097-7.3299 6.4536-17.686-0.96733-24.961-7.9746-5.9342-14.849 0.50987-14.82 0.49511-6.2461 6.8989 0.7393 14.869 8.4325 12.261-11.798 11.214-21.547-11.303-8.1322-18.453 11.541-5.7748 20.358-0.0726 25.733 10.752 8.4012 17.443-9.9108 36.384-25.824 34.759-12.63-0.92224-21.372-15.423-22.266-28.937-1.1141-17.392 2.4255-36.392-4.571-52.892-6.5335-17.554-20.743-33.804-39.858-37.289-9.3485-1.7196-18.952-0.66239-28.199 1.1597z" fill-rule="evenodd"/>
  <path d="m383.25 692.61c10.601 9.9803 27.731 13.028 40.587 5.6423 13.463-6.8146 22.444-20.114 27.119-34.138 2.5183-6.7483 4.2187-14.155 11.055-17.734 6.5948-3.1354 15.62-1e-3 18.073 7.2694 2.1056 6.2399-0.24052 13.002-6.8321 15.844-6.6148 1.8403-9.4417-4.0222-9.4265-4.0054-2.3089-5.9993 4.1749-9.3974 8.4836-5.8031-4.8132-10.161-16.696 1.924-9.8303 9.868 6.0004 6.5919 13.101 5.1108 19.257-0.52763 9.7526-9.1506 2.6639-25.911-7.9948-28.822-8.3682-2.5474-17.608 4.622-21.546 13.108-5.0441 10.93-7.4894 24.054-16.102 32.946-8.5765 9.6863-21.775 16.623-34.96 14.114-6.4518-1.2173-12.377-4.2874-17.882-7.7615z" fill-rule="evenodd"/>
  <path d="m619.09 640.26c10.078 0.84143 17.321 0.7793 22.879-8.1532 3.8503-6.0141 7.459-19.428 12.123-22.2 3.2443-1.6478 7.7807-0.20431 9.0976 3.3857 1.1302 3.0809 0.0496 6.4797-3.1969 7.9813-3.2711 1.0029-4.7556-1.8806-4.7479-1.8724-1.2283-2.9584 1.9572-4.7356 4.1504-3.0013-2.53-4.9986-8.292 1.1759-4.7683 5.0437 3.0749 3.2055 6.5925 2.3752 9.5856-0.51371 4.7389-4.6853 1.4199-13.631-3.9276-14.942-4.2017-1.1599-9.5585 0.72391-12.27 7.4129-10.17 22.875-9.4279 27.19-30.558 25.192z" fill-rule="evenodd"/>
  <path d="m612.18 640.2c34.145 20.408 64.566 20.116 90.446 16.938 25.879-3.1773 47.359-9.261 64.032-0.7382-16.597-8.923-38.304-3.2065-64.166-0.42351-25.863 2.7831-55.74 2.613-89.103-17.778z" fill-rule="evenodd"/>
  <path d="m608.84 563.85c-2.4372 5.2295-0.15657 10.403-2.6375 14.186-2.4809 3.7826-11.885 4.1076-11.885 4.1076 7.4268-4.5852 4.7664-10.452 10.464-13.599-5.9713 2.5324-4.791 7.5428-10.945 13.425 0 0-1.9008-0.72511-1.266-7.6294s10.38-6.1222 16.27-10.49z" fill="#000400"/>
  <path d="m632.42 562.46c-2.0773 5.5567-0.13346 11.054-2.2481 15.073s-10.13 4.3646-10.13 4.3646c6.3304-4.872 4.0627-11.106 8.9194-14.45-5.0897 2.6909-4.0837 8.0147-9.3295 14.265 0 0-1.6202-0.77046-1.0791-8.1068 0.54107-7.3363 8.8476-6.5053 13.868-11.146z" fill="#000400"/>
  <path d="m599.36 608.51c-2.2639-5.896-0.14544-11.729-2.45-15.994-2.3046-4.2647-11.04-4.6312-11.04-4.6312 6.8989 5.1696 4.4276 11.785 9.7204 15.332-5.5468-2.8552-4.4504-8.5041-10.167-15.136 0 0-1.7657 0.81753-1.176 8.6018 0.58967 7.7843 9.6422 6.9025 15.113 11.826z" fill="#000400"/>
  <path d="m623.31 604.58c-2.1137-5.6539-0.13579-11.247-2.2874-15.337s-10.308-4.441-10.308-4.441c6.4411 4.9573 4.1338 11.301 9.0755 14.703-5.1788-2.738-4.1551-8.1549-9.4928-14.514 0 0-1.6486 0.78395-1.098 8.2486 0.55054 7.4647 9.0024 6.6191 14.11 11.341z" fill="#000400"/>
  <path d="m661.53 597.29c-6.1886-3.9754-8.3398-10.877-13.424-13.298s-13.3 3.1875-13.3 3.1875c9.9035 0.13775 12.281 8.0122 19.586 7.7261-7.052 1.107-10.006-4.9265-19.855-7.2378 0 0-1.0368 1.968 4.9476 8.8513 5.9844 6.8832 13.616-0.10948 22.046 0.77139z" fill="#000400"/>
  <path d="m550.32 722.92c-6.1886-3.9754-8.3398-10.877-13.424-13.298s-13.3 3.1875-13.3 3.1875c9.9035 0.13774 12.281 8.0122 19.586 7.7261-7.052 1.107-10.006-4.9265-19.855-7.2378 0 0-1.0368 1.968 4.9476 8.8513s13.616-0.10947 22.046 0.77139z" fill="#000400"/>
  <path d="m534.8 687.59c-6.7745 2.8649-13.686 0.74532-18.554 3.5758-4.868 2.8305-4.8753 12.778-4.8753 12.778 5.7032-8.0976 13.545-5.6156 17.432-11.807-3.0664 6.4462-9.7142 5.4793-17.181 12.306 0 0 1.0394 1.9666 10.099 0.91145 9.0597-1.0552 7.5944-11.302 13.08-17.764z" fill="#000400"/>
  <path d="m411.93 590.53c4.2201 2.858 9.2034 2.346 12.132 4.9244 2.9287 2.5783 1.5967 9.3415 1.5967 9.3415-2.7886-6.271-8.453-5.6377-10.263-10.369 1.2181 4.7941 5.867 5.0302 10.025 10.674 0 0-0.9709 1.1972-6.9876-0.73772-6.0167-1.9349-3.6436-8.7032-6.5038-13.833z" fill="#000400"/>
  <path d="m437.37 596.86c2.3085 4.544 6.9166 6.5091 8.2306 10.183 1.314 3.674-3.1262 8.9465-3.1262 8.9465 0.59659-6.8371-4.6661-9.0258-3.9588-14.042-1.2556 4.7844 2.6977 7.2421 3.6033 14.194 0 0-1.4292 0.57734-5.7566-4.029-4.3274-4.6063 1.0262-9.3791 1.0077-15.253z" fill="#000400"/>
  <path d="m452.46 615.65c0.75533 5.0405 4.507 8.3603 4.5935 12.261 0.0865 3.901-5.7916 7.5014-5.7916 7.5014 2.7253-6.2988-1.5769-10.037 0.67841-14.573-2.7023 4.143 0.2725 7.7234-1.0637 14.605 0 0-1.5384 0.0965-4.1896-5.6407s3.9357-8.575 5.773-14.154z" fill="#000400"/>
  <path d="m582.12 684.87c6.15 4.0348 13.33 3.1906 17.611 6.8491 4.2807 3.6585 2.5017 13.446 2.5017 13.446-4.1566-8.99-12.317-7.9564-15.029-14.745 1.8591 6.892 8.5725 7.1344 14.692 15.191 0 0-1.3757 1.748-10.099-0.91668-8.723-2.6647-5.4417-12.482-9.6776-19.823z" fill="#000400"/>
  <path d="m760.28 629.37c-2.7467 5.8937-0.17647 11.724-2.9725 15.987-2.7961 4.263-13.394 4.6294-13.394 4.6294 8.3701-5.1676 5.3718-11.78 11.793-15.326-6.7298 2.8541-5.3995 8.5008-12.336 15.13 0 0-2.1422-0.8172-1.4268-8.5985 0.71537-7.7813 11.698-6.8999 18.336-11.822z" fill="#000400"/>
  <path d="m749.14 677.92c-2.5734-6.7022-0.16532-13.333-2.785-18.18-2.6197-4.8478-12.55-5.2644-12.55-5.2644 7.8422 5.8764 5.033 13.396 11.05 17.429-6.3052-3.2456-5.059-9.6669-11.558-17.205 0 0-2.0071 0.9293-1.3368 9.778 0.67034 8.8487 10.961 7.8463 17.179 13.444z" fill="#000400"/>
  <path d="m799.55 681.16c-7.2529-8.3688-7.4317-19.252-13.749-24.907-6.3169-5.6547-20.565-1.0392-20.565-1.0392 14.248 4.4014 14.34 16.785 25.014 19.472-10.657-1.3933-12.364-11.363-25.611-18.881 0 0-2.3329 2.403 3.391 14.886s19.715 5.6196 31.52 10.469z" fill="#000400"/>
 </g>
</svg>
